<?xml version="1.0" encoding="utf-8"?>
<svg viewBox="0 0 160 160" xmlns="http://www.w3.org/2000/svg">
  <path style="stroke-linecap: round; stroke-linejoin: round; stroke: rgb(0, 0, 0); fill: rgb(166, 166, 166); stroke-width: 3px;" d="M -46.913 19.808 L -37.952 19.597 L -38.38 49.904 L -87.289 70.757 L -87.289 86.118 L -94.205 85.392 L -94.372 67.506 L -46.449 42.181 L -43.881 27.338 L -46.449 25.67"/>
  <path style="stroke-linecap: round; stroke-linejoin: round; stroke: rgb(0, 0, 0); fill: rgb(154, 154, 154); stroke-width: 3px;" d="M -120.265 8.559 C -117.882 4.622 -53.815 6.861 -51.535 8.97 C -42.704 10.985 -47.048 37.62 -51.995 36.491 C -50.721 37.455 -117.288 39.203 -122.429 35.313 C -127.414 34.932 -131.468 7.917 -120.209 8.777"/>
  <path style="fill: rgb(216, 216, 216); stroke-linecap: round; stroke-linejoin: round; stroke: rgb(0, 0, 0); stroke-width: 3px;" d="M -126.946 19.597 L -130.162 19.98 C -132.395 19.854 -131.951 25.574 -130.251 25.67 L -126.456 25.438 L -127.071 19.799"/>
  <path style="fill: rgb(216, 216, 216); stroke-linecap: round; stroke-linejoin: round; stroke: rgb(0, 0, 0); stroke-width: 3px;" d="M -87.289 32.877 L -84.383 37.728"/>
  <path style="fill: rgb(216, 216, 216); stroke-linecap: round; stroke-linejoin: round; stroke: rgb(0, 0, 0); stroke-width: 3px;" d="M -84.533 30.408 L -80.148 37.728"/>
  <path style="fill: rgb(216, 216, 216); stroke-linecap: round; stroke-linejoin: round; stroke: rgb(0, 0, 0); stroke-width: 3px;" d="M -80.148 29.509 L -75.225 37.728"/>
  <path style="fill: rgb(216, 216, 216); stroke-linecap: round; stroke-linejoin: round; stroke: rgb(0, 0, 0); stroke-width: 3px;" d="M -75.225 29.681 L -70.404 37.728"/>
  <path style="fill: rgb(216, 216, 216); stroke-linecap: round; stroke-linejoin: round; stroke: rgb(0, 0, 0); stroke-width: 3px;" d="M -70.404 29.936 L -65.736 37.728"/>
  <path style="fill: rgb(216, 216, 216); stroke-linecap: round; stroke-linejoin: round; stroke: rgb(0, 0, 0); stroke-width: 3px;" d="M -64.13 31.752 L -61.223 36.604"/>
  <path style="stroke-linecap: round; stroke-linejoin: round; stroke: rgb(0, 0, 0); fill: rgb(130, 130, 130); stroke-width: 3px;" d="M -100.078 83.709 L -82.175 83.776 L -82.787 145.734 L -99.196 145.347 L -99.867 84.359"/>
  <path style="fill: rgb(156, 158, 152); stroke: rgb(0, 0, 0); stroke-width: 8px;" d="M 104.275 69.184 C 108.35 52.882 110.798 46.626 100.941 31.135 C 98.355 27.073 94.499 24.885 90.566 22.356 C 64.926 5.874 29.566 18.785 21.135 48.293 C 16.565 64.289 29.771 76.419 41.884 84.206 C 48.207 88.271 54.946 90.517 58.244 97.773 C 62.847 107.899 50.298 120.084 43.879 126.503 C 42.656 127.727 36.697 130.674 36.697 132.488 C 36.697 134.288 42.628 134.398 43.48 134.484 C 50.207 135.156 57.378 133.913 64.23 134.484 C 86.163 136.311 105.848 142.557 127.675 135.282 C 131.478 134.014 138.109 132.578 140.843 129.296 C 142.785 126.967 140.998 123.299 140.045 120.917 C 137.089 113.526 135.455 110.366 129.272 104.955 C 119.091 96.047 97.161 99.071 99.344 79.418 C 99.684 76.36 103.314 72.005 103.919 68.981"/>
</svg>