<?xml version="1.0" encoding="utf-8"?>
<svg viewBox="0 0 160 140" xmlns="http://www.w3.org/2000/svg" xmlns:bx="https://boxy-svg.com">
  <defs>
    <bx:grid x="0" y="0" width="47.5" height="33.7"/>
  </defs>
  <path style="stroke-linecap: round; stroke-linejoin: round; fill: none; stroke: rgb(255, 255, 255); stroke-width: 16px;" d="M 85.404 185.852 L 24.243 229.604 L 85.165 280.249"/>
  <path style="stroke-linecap: round; stroke-linejoin: round; fill: none; stroke-width: 8px; stroke: rgb(152, 152, 152);" d="M 85.404 185.852 L 24.243 229.604 L 85.165 280.249"/>
  <path style="stroke-linecap: round; stroke-linejoin: round; fill: none; stroke: rgb(255, 255, 255); stroke-width: 16px;" d="M 134.542 185.852 L 73.381 229.604 L 134.303 280.249"/>
  <path style="stroke-linecap: round; stroke-linejoin: round; fill: none; stroke-width: 8px; stroke: rgb(152, 152, 152);" d="M 134.542 185.852 L 73.381 229.604 L 134.303 280.249"/>
  <g transform="matrix(1, 0, 0, 1, 199.504654, 124.78299)">
    <path style="stroke-linecap: round; stroke-linejoin: round; fill: none; stroke: rgb(255, 255, 255); stroke-width: 16px;" d="M 154.524 -118.08 L 93.363 -74.328 L 154.285 -23.683"/>
    <path style="stroke-linecap: round; stroke-linejoin: round; fill: none; stroke: rgb(255, 255, 255); stroke-width: 16px;" d="M 93.363 -23.683 L 32.202 -67.435 L 93.124 -118.08" transform="matrix(-1, 0, 0, -1, 125.564989, -141.76299)"/>
    <path style="stroke-linecap: round; stroke-linejoin: round; fill: none; stroke-width: 8px; stroke: rgb(152, 152, 152);" d="M 93.363 -23.683 L 32.202 -67.435 L 93.124 -118.08" transform="matrix(-1, 0, 0, -1, 125.564989, -141.76299)"/>
    <path style="stroke-linecap: round; stroke-linejoin: round; fill: none; stroke-width: 8px; stroke: rgb(152, 152, 152);" d="M 154.524 -118.08 L 93.363 -74.328 L 154.285 -23.683"/>
  </g>
  <path style="stroke-linecap: round; stroke-linejoin: round; fill: none; stroke-width: 26px; stroke: rgb(213, 251, 235);" d="M 141.161 22.802 L 80 66.554 L 140.922 117.199"/>
  <path style="stroke-linecap: round; stroke-linejoin: round; fill: none; stroke-width: 26px; stroke: rgb(213, 251, 235);" d="M 80 117.199 L 18.839 73.447 L 79.761 22.802" transform="matrix(-1, 0, 0, -1, 98.838992, 140.001003)"/>
  <path style="stroke-linecap: round; stroke-linejoin: round; fill: none; stroke: rgb(69, 69, 69); stroke-width: 12px;" d="M 80 117.199 L 18.839 73.447 L 79.761 22.802" transform="matrix(-1, 0, 0, -1, 98.838992, 140.001003)"/>
  <path style="stroke-linecap: round; stroke-linejoin: round; fill: none; stroke: rgb(69, 69, 69); stroke-width: 12px;" d="M 138.81 22.802 L 77.649 66.554 L 138.571 117.199"/>
</svg>