<?xml version="1.0" encoding="utf-8"?>
<svg viewBox="0 0 160 140" xmlns="http://www.w3.org/2000/svg" xmlns:bx="https://boxy-svg.com">
  <defs>
    <bx:grid x="0" y="0" width="47.5" height="33.7"/>
  </defs>
  <path style="stroke-linecap: round; stroke-linejoin: round; fill: none; stroke: rgb(255, 255, 255); stroke-width: 16px;" d="M 85.404 185.852 L 24.243 229.604 L 85.165 280.249"/>
  <path style="stroke-linecap: round; stroke-linejoin: round; fill: none; stroke-width: 8px; stroke: rgb(152, 152, 152);" d="M 85.404 185.852 L 24.243 229.604 L 85.165 280.249"/>
  <path style="stroke-linecap: round; stroke-linejoin: round; fill: none; stroke: rgb(255, 255, 255); stroke-width: 16px;" d="M 134.542 185.852 L 73.381 229.604 L 134.303 280.249"/>
  <path style="stroke-linecap: round; stroke-linejoin: round; fill: none; stroke-width: 8px; stroke: rgb(152, 152, 152);" d="M 134.542 185.852 L 73.381 229.604 L 134.303 280.249"/>
  <rect width="160" height="140" style="fill: rgb(85, 39, 39);" x="-230.217" y="-47.792"/>
  <path style="stroke-linecap: round; stroke-linejoin: round; fill: none; stroke-width: 26px; stroke: rgb(213, 251, 235);" d="M 140.149 117.198 L 78.988 73.446 L 139.91 22.801" transform="matrix(-1, 0, 0, -1, 219.137019, 139.999003)"/>
  <path style="stroke-linecap: round; stroke-linejoin: round; fill: none; stroke-width: 8px; stroke: rgb(69, 69, 69);" d="M 142.5 117.198 L 81.339 73.446 L 142.261 22.801" transform="matrix(-1, 0, 0, -1, 223.838983, 139.999003)"/>
  <path style="stroke-linecap: round; stroke-linejoin: round; fill: none; stroke-width: 26px; stroke: rgb(213, 251, 235);" d="M 86.012 117.198 L 24.851 73.446 L 85.773 22.801" transform="matrix(-1, 0, 0, -1, 110.863004, 139.999003)"/>
  <path style="stroke-linecap: round; stroke-linejoin: round; fill: none; stroke-width: 8px; stroke: rgb(69, 69, 69);" d="M 86.012 117.198 L 24.851 73.446 L 85.773 22.801" transform="matrix(-1, 0, 0, -1, 110.863004, 139.999003)"/>
  <rect x="212.514" y="-11.566" width="64" height="56" style="fill: rgb(85, 39, 39);"/>
</svg>